<svg fill="none" height="75" viewBox="0 0 541 75" width="541" xmlns="http://www.w3.org/2000/svg"><path d="m37.0273 57.1409c-11.2785 0-20.2988-9.0203-20.2988-20.2988 0-11.2784 9.0203-20.2988 20.2988-20.2988v-16.5433c-20.488 0-37.0273 16.5393-37.0273 37.0273 0 20.4879 16.5393 37.0272 37.0273 37.0272 20.4879 0 37.0272-16.5393 37.0272-37.0272h-16.5393c-.1891 11.0892-9.2095 20.1136-20.4879 20.1136z" fill="#0068ff"/><path d="m57.3261 16.541h-20.2988v20.2988h20.2988z" fill="#17e6a1"/><g fill="#14141e"><path d="m202.191 15.473c-4.967-3.8964-11.214-6.22691-18.004-6.22691-16.117 0-29.227 13.10991-29.227 29.22651 0 16.1167 13.11 29.2266 29.227 29.2266 6.786 0 13.037-2.3306 18.004-6.2309v5.7801h11.89v-55.4785h-11.89v3.7071zm-18.004 40.1548c-9.464 0-17.16-7.6961-17.16-17.1592s7.696-17.1592 17.16-17.1592c9.463 0 17.159 7.6961 17.159 17.1592s-7.696 17.1592-17.159 17.1592z"/><path d="m241.404 1.36523h-12.973v10.40497h-6.086v11.8943h6.086v26.8075c0 9.5114 7.74 17.2517 17.251 17.2517h10.856v-12.7355h-10.618c-2.488 0-4.516-2.0247-4.516-4.5122v-26.8115h15.138v-11.8943h-15.138z"/><path d="m319.226 43.1096c.178-1.3041.186-2.6244.186-3.9768 0-16.1408-12.969-29.22655-29.11-29.22655s-29.227 13.08575-29.227 29.22655 13.086 29.2265 29.227 29.2265c12.623 0 23.362-8.014 27.447-19.224h-13.194c-3.152 4.488-8.352 7.4264-14.253 7.4264-8.256 0-15.155-5.7479-16.958-13.4521h33.912zm-44.904-10.9282c2.685-6.1665 8.823-10.4775 15.98-10.4775 7.156 0 13.295 4.315 15.98 10.4775z"/><path d="m115.948 32.512v12.2123h18.793l-.141.334c-3.192 7.6639-10.618 12.6148-18.914 12.6148-11.298 0-20.4878-9.1894-20.4878-20.4879 0-11.2986 9.1898-20.488 20.4878-20.488 6.525 0 12.559 3.0672 16.423 8.2676h14.969c-5.019-12.9166-17.445-21.49019-31.392-21.49019-18.588 0-33.7104 15.12249-33.7104 33.71059s15.1224 33.7105 33.7104 33.7105c9 0 17.453-3.5059 23.805-9.8736 6.347-6.3638 9.841-14.8287 9.841-23.8369 0-1.6705-.096-3.204-.302-4.6692h-33.082z"/><path d="m494.273 44.586c0-4.1138.973-7.9218 2.919-11.4241 2.001-3.5023 4.697-6.254 8.089-8.2553 3.391-2.0569 7.087-3.0854 11.09-3.0854 3.502 0 6.699.8061 9.59 2.4183 2.946 1.6121 5.336 3.7802 7.171 6.5042v-22.4312h7.088v58.3711h-7.088v-8.2553c-1.835 2.724-4.225 4.9198-7.171 6.5876-2.891 1.6121-6.088 2.4182-9.59 2.4182-4.003 0-7.699-1.0284-11.09-3.0853-3.392-2.0569-6.088-4.8365-8.089-8.3388-1.946-3.5022-2.919-7.3102-2.919-11.424zm6.588.0834c0 2.8907.723 5.6147 2.168 8.1719 1.445 2.5016 3.419 4.4751 5.921 5.9205 2.501 1.4454 5.197 2.1681 8.088 2.1681 3.002 0 5.754-.7227 8.256-2.1681 2.501-1.4454 4.475-3.4189 5.92-5.9205s2.168-5.2256 2.168-8.1719c0-2.9464-.723-5.6704-2.168-8.172s-3.419-4.4751-5.92-5.9205c-2.502-1.501-5.254-2.2514-8.256-2.2514-2.891 0-5.587.7504-8.088 2.2514-2.502 1.4454-4.476 3.4189-5.921 5.9205s-2.168 5.2256-2.168 8.172z"/><path d="m470.2 30.0776c1.612-2.5016 3.753-4.5029 6.421-6.0039 2.668-1.5009 5.559-2.2514 8.672-2.2514 2.057 0 4.086.4169 6.088 1.2508l-3.669 6.3374c-1.223-.6671-2.585-1.0006-4.086-1.0006-2.446 0-4.698.6671-6.755 2.0013s-3.697 3.1131-4.92 5.3367c-1.167 2.1681-1.751 4.503-1.751 7.0046v24.0155h-7.088v-44.1953h7.088z"/><path d="m453.736 22.4894v44.1952h-7.087v-8.2553c-1.779 2.724-4.142 4.9198-7.088 6.5876-2.947 1.6121-6.143 2.4182-9.59 2.4182-4.003 0-7.699-1.0284-11.09-3.0853-3.392-2.0569-6.088-4.8365-8.089-8.3387-2.001-3.5023-3.002-7.3103-3.002-11.4241s1.001-7.9218 3.002-11.4241c2.001-3.5022 4.697-6.254 8.089-8.2553 3.391-2.0569 7.087-3.0853 11.09-3.0853 3.447 0 6.643.806 9.59 2.4182 2.946 1.6121 5.309 3.7802 7.088 6.5042v-8.2553zm-23.098 38.4415c2.947 0 5.67-.7227 8.172-2.1681 2.502-1.5009 4.475-3.4744 5.921-5.9205 1.445-2.5016 2.168-5.2256 2.168-8.1719 0-2.9464-.751-5.6703-2.252-8.172-1.445-2.5016-3.419-4.4751-5.92-5.9205-2.446-1.5009-5.142-2.2514-8.089-2.2514-2.946 0-5.67.7505-8.172 2.2514-2.501 1.4454-4.475 3.4189-5.92 5.9205-1.446 2.5017-2.168 5.2256-2.168 8.172 0 2.8907.722 5.6147 2.168 8.1719 1.445 2.5017 3.419 4.4752 5.92 5.9205 2.502 1.4454 5.226 2.1681 8.172 2.1681z"/><path d="m387.173 57.344c3.502-2.0569 6.282-4.7809 8.339-8.172l6.671 2.3348c-2.502 4.7809-6.115 8.6167-10.841 11.5075-4.669 2.8908-9.812 4.3361-15.426 4.3361-5.393 0-10.368-1.3342-14.927-4.0026-4.558-2.6684-8.172-6.2818-10.84-10.8403-2.668-4.6141-4.003-9.6173-4.003-15.0097s1.335-10.3678 4.003-14.9263c2.668-4.5586 6.282-8.172 10.84-10.8404 4.559-2.66839 9.534-4.00258 14.927-4.00258 5.614 0 10.757 1.44538 15.426 4.33618 4.726 2.8907 8.339 6.7265 10.841 11.5074l-6.755 2.0847c-2.001-3.4467-4.753-6.1707-8.255-8.172-3.447-2.0013-7.227-3.0019-11.341-3.0019-4.169 0-8.005 1.0284-11.507 3.0853s-6.282 4.8365-8.339 8.3387c-2.057 3.5023-3.085 7.3659-3.085 11.5909 0 4.1138 1.028 7.9218 3.085 11.424 2.057 3.5023 4.837 6.2819 8.339 8.3388s7.338 3.0853 11.507 3.0853c4.114 0 7.894-1.0007 11.341-3.0019z"/></g></svg>