<svg fill="none" height="85" viewBox="0 0 496 85" width="496" xmlns="http://www.w3.org/2000/svg"><path d="m37.256 57.4939c-11.3481 0-20.4242-9.076-20.4242-20.4242 0-11.3481 9.0761-20.4242 20.4242-20.4242v-16.6455c-20.6145 0-37.256 16.6415-37.256 37.256 0 20.6146 16.6415 37.2561 37.256 37.2561 20.6146 0 37.2561-16.6415 37.2561-37.2561h-16.6415c-.1904 11.1578-9.2664 20.2379-20.6146 20.2379z" fill="#0068ff"/><path d="m57.6801 16.6445h-20.4242v20.4242h20.4242z" fill="#17e6a1"/><g fill="#14141e"><path d="m203.441 15.5701c-4.998-3.9205-11.284-6.26541-18.116-6.26541-16.216 0-29.407 13.19091-29.407 29.40711s13.191 29.4071 29.407 29.4071c6.828 0 13.118-2.3449 18.116-6.2694v5.8158h11.963v-55.8213h-11.963v3.7301zm-18.116 40.4028c-9.521 0-17.265-7.7436-17.265-17.2652 0-9.5215 7.744-17.2651 17.265-17.2651 9.522 0 17.265 7.7436 17.265 17.2651 0 9.5216-7.743 17.2652-17.265 17.2652z"/><path d="m242.896 1.37305h-13.054v10.46925h-6.123v11.9678h6.123v26.9731c0 9.5701 7.789 17.3583 17.359 17.3583h10.923v-12.8142h-10.684c-2.503 0-4.544-2.0372-4.544-4.5401v-26.9771h15.232v-11.9678h-15.232z"/><path d="m321.198 43.3753c.178-1.3122.186-2.6406.186-4.0014 0-16.2405-13.049-29.4071-29.289-29.4071-16.241 0-29.407 13.1666-29.407 29.4071s13.166 29.4071 29.407 29.4071c12.7 0 23.506-8.0635 27.617-19.3428h-13.276c-3.171 4.5157-8.404 7.4722-14.341 7.4722-8.307 0-15.249-5.7834-17.063-13.5351h34.121zm-45.182-10.9958c2.701-6.2046 8.878-10.5421 16.079-10.5421s13.377 4.3416 16.078 10.5421z"/><path d="m116.664 32.7129v12.2877h18.91l-.142.3361c-3.211 7.7113-10.684 12.6928-19.031 12.6928-11.368 0-20.6143-9.2462-20.6143-20.6146s9.2463-20.6145 20.6143-20.6145c6.565 0 12.636 3.0861 16.524 8.3187h15.062c-5.05-12.9965-17.552-21.62301-31.586-21.62301-18.7027 0-33.9186 15.21591-33.9186 33.91881 0 18.703 15.2159 33.9188 33.9186 33.9188 9.056 0 17.561-3.5275 23.952-9.9346 6.387-6.4031 9.902-14.9203 9.902-23.9842 0-1.6807-.097-3.2238-.303-4.698h-33.288z"/><path d="m473.882 58.4534 14.18-35.7425h7.635l-17.787 44.0488-3.86 9.3132c-1.119 2.4052-2.293 4.2511-3.524 5.5376-1.174 1.2865-2.601 2.2374-4.279 2.8527-1.342.4474-2.852.6152-4.531.5034-1.622-.056-3.16-.2797-4.614-.6712-1.454-.3356-2.573-.6713-3.356-1.0069l2.349-6.1249c.895.3916 1.818.6713 2.769.8391s1.818.1957 2.601.0839c1.118-.1119 2.069-.4195 2.852-.923.784-.5034 1.595-1.3704 2.434-2.6009.335-.4475.755-1.2306 1.258-2.3493.504-1.1187.979-2.2094 1.427-3.2722l.839-2.0137-18.879-44.2166h7.636z"/><path d="m445.234 22.6283v44.4683h-7.132v-8.3064c-1.789 2.7408-4.167 4.9503-7.131 6.6283-2.965 1.6221-6.181 2.4332-9.649 2.4332-4.027 0-7.747-1.0348-11.159-3.1044s-6.125-4.8664-8.139-8.3903c-2.013-3.5239-3.02-7.3554-3.02-11.4946s1.007-7.9707 3.02-11.4946c2.014-3.5239 4.727-6.2927 8.139-8.3064 3.412-2.0696 7.132-3.1044 11.159-3.1044 3.468 0 6.684.8111 9.649 2.4332 2.964 1.6221 5.342 3.8036 7.131 6.5444v-8.3063zm-23.241 38.679c2.965 0 5.706-.7272 8.223-2.1815 2.517-1.5102 4.502-3.4959 5.957-5.957 1.454-2.5171 2.181-5.2579 2.181-8.2225 0-2.9645-.755-5.7054-2.265-8.2224-1.455-2.5171-3.44-4.5028-5.957-5.9571-2.461-1.5103-5.174-2.2654-8.139-2.2654-2.964 0-5.705.7551-8.222 2.2654-2.517 1.4543-4.503 3.44-5.957 5.9571-1.455 2.517-2.182 5.2579-2.182 8.2224 0 2.9086.727 5.6494 2.182 8.2225 1.454 2.517 3.44 4.5027 5.957 5.957s5.258 2.1815 8.222 2.1815z"/><path d="m349.963 67.179v-58.73173h25.506c5.538 0 10.041 1.84583 13.509 5.53753 3.468 3.6358 5.201 8.1106 5.201 13.4244 0 5.4257-1.733 9.9565-5.201 13.5922-3.412 3.6358-7.915 5.4537-13.509 5.4537h-18.123v20.7239zm7.383-27.4361h17.704c3.747 0 6.684-1.1746 8.809-3.5239 2.126-2.3493 3.189-5.3418 3.189-8.9776 0-3.5239-1.063-6.4045-3.189-8.6419-2.069-2.2934-5.006-3.44-8.809-3.44h-17.704z"/></g></svg>