<svg fill="none" height="73" viewBox="0 0 798 73" width="798" xmlns="http://www.w3.org/2000/svg"><path d="m36.5 56.3272c-11.1178 0-20.0097-8.8919-20.0097-20.0097 0-11.1179 8.8919-20.0097 20.0097-20.0097v-16.3078c-20.1962 0-36.5 16.3038-36.5 36.5s16.3038 36.5 36.5 36.5 36.5-16.3038 36.5-36.5h-16.3038c-.1865 10.9314-9.0784 19.8272-20.1962 19.8272z" fill="#0068ff"/><path d="m56.5097 16.3047h-20.0097v20.0097h20.0097z" fill="#17e6a1"/><g fill="#14141e"><path d="m199.312 15.2535c-4.896-3.8409-11.054-6.13827-17.748-6.13827-15.887 0-28.81 12.92317-28.81 28.81037s12.923 28.8104 28.81 28.8104c6.69 0 12.852-2.2974 17.748-6.1422v5.6978h11.721v-54.6885h-11.721v3.6543zm-17.748 39.5829c-9.328 0-16.915-7.5864-16.915-16.9148 0-9.3283 7.587-16.9148 16.915-16.9148 9.329 0 16.915 7.5865 16.915 16.9148 0 9.3284-7.586 16.9148-16.915 16.9148z"/><path d="m237.965 1.3457h-12.788v10.2568h-5.999v11.7249h5.999v26.4257c0 9.376 7.63 17.0061 17.006 17.0061h10.701v-12.5542h-10.467c-2.452 0-4.452-1.9958-4.452-4.4479v-26.4297h14.923v-11.7249h-14.923z"/><path d="m314.681 42.4942c.174-1.2855.182-2.587.182-3.9202 0-15.9109-12.784-28.81033-28.695-28.81033s-28.811 12.89943-28.811 28.81033c0 15.911 12.9 28.8104 28.811 28.8104 12.443 0 23.029-7.8999 27.056-18.9503h-13.006c-3.107 4.4241-8.233 7.3206-14.05 7.3206-8.138 0-14.939-5.6661-16.717-13.2605h33.429zm-44.265-10.7726c2.646-6.0787 8.697-10.3282 15.752-10.3282s13.106 4.2535 15.752 10.3282z"/><path d="m114.297 32.0497v12.0383h18.526l-.139.3294c-3.147 7.5547-10.467 12.4351-18.645 12.4351-11.138 0-20.1961-9.0585-20.1961-20.1962s9.0581-20.1962 20.1961-20.1962c6.432 0 12.38 3.0235 16.189 8.1499h14.756c-4.948-12.7328-17.196-21.18422-30.945-21.18422-18.3233 0-33.2304 14.90712-33.2304 33.23052s14.9071 33.2305 33.2304 33.2305c8.872 0 17.205-3.456 23.466-9.7331 6.257-6.2731 9.701-14.6174 9.701-23.4974 0-1.6467-.095-3.1584-.297-4.6027h-32.612z"/><path d="m790.062 65.8153v-57.53991h6.987v57.53991z"/><path d="m780.409 22.1693v43.5659h-6.987v-8.1377c-1.753 2.6851-4.082 4.8497-6.987 6.4937-2.904 1.5892-6.055 2.3838-9.453 2.3838-3.945 0-7.589-1.0138-10.932-3.0414-3.343-2.0275-6.001-4.7675-7.974-8.2199-1.972-3.4524-2.959-7.2062-2.959-11.2614s.987-7.809 2.959-11.2614c1.973-3.4524 4.631-6.165 7.974-8.1378 3.343-2.0276 6.987-3.0414 10.932-3.0414 3.398 0 6.549.7946 9.453 2.3838 2.905 1.5892 5.234 3.7264 6.987 6.4116v-8.1378zm-22.769 37.8941c2.904 0 5.59-.7123 8.056-2.1371 2.466-1.4796 4.411-3.425 5.836-5.8362 1.425-2.466 2.137-5.1512 2.137-8.0556s-.74-5.5896-2.219-8.0556c-1.425-2.466-3.371-4.4114-5.837-5.8362-2.411-1.4796-5.069-2.2194-7.973-2.2194s-5.59.7398-8.056 2.2194c-2.466 1.4248-4.411 3.3702-5.836 5.8362s-2.137 5.1512-2.137 8.0556c0 2.8496.712 5.5348 2.137 8.0556 1.425 2.466 3.37 4.4114 5.836 5.8362s5.152 2.1371 8.056 2.1371z"/><path d="m709.57 21.5117c3.398 0 6.494.822 9.289 2.466 2.849 1.644 5.096 3.8908 6.74 6.7404 1.699 2.8496 2.548 5.9732 2.548 9.3708v25.7285h-6.987v-24.5777c0-2.4112-.602-4.6306-1.808-6.6582-1.151-2.0276-2.74-3.6168-4.768-4.7676-2.027-1.2056-4.247-1.8084-6.658-1.8084s-4.63.6576-6.658 1.9728-3.644 3.0688-4.85 5.2608c-1.151 2.1372-1.726 4.4388-1.726 6.9048v23.6735h-6.987v-43.5659h6.987v7.398c1.589-2.466 3.699-4.4388 6.329-5.9184 2.631-1.4796 5.48-2.2194 8.549-2.2194z"/><path d="m658.337 21.5117c4.055 0 7.809 1.0138 11.261 3.0414 3.453 1.9728 6.193 4.6854 8.22 8.1378 2.028 3.4524 3.042 7.2062 3.042 11.2614s-1.014 7.809-3.042 11.2614c-2.027 3.4524-4.767 6.1924-8.22 8.2199-3.452 2.0276-7.206 3.0414-11.261 3.0414s-7.809-1.0138-11.261-3.0414c-3.453-2.0275-6.193-4.7675-8.22-8.2199-1.973-3.4524-2.96-7.2062-2.96-11.2614s.987-7.809 2.96-11.2614c2.027-3.4524 4.767-6.165 8.22-8.1378 3.452-2.0276 7.206-3.0414 11.261-3.0414zm0 38.4696c2.904 0 5.59-.7124 8.056-2.1372s4.411-3.3702 5.836-5.8362 2.137-5.1238 2.137-7.9734c0-2.9592-.74-5.6718-2.219-8.1378-1.425-2.466-3.371-4.4114-5.837-5.8362-2.411-1.4248-5.069-2.1372-7.973-2.1372s-5.59.7124-8.056 2.1372-4.411 3.3702-5.836 5.8362-2.137 5.1786-2.137 8.1378c0 2.8496.712 5.5074 2.137 7.9734s3.37 4.4114 5.836 5.8362 5.152 2.1372 8.056 2.1372z"/><path d="m628.867 6.96094h-7.398v7.48016h7.398zm-7.316 58.85506v-43.5659h6.987v43.5659z"/><path d="m593.384 22.2498v-11.3436h6.905v11.3436h14.138v6.165h-14.138v23.2626c0 1.4796.356 2.8222 1.068 4.0278.713 1.2056 1.672 2.1646 2.877 2.877 1.206.6576 2.548.9864 4.028.9864h6.494v6.2472h-7.891c-2.412 0-4.658-.6028-6.741-1.8084-2.082-1.2056-3.726-2.8496-4.932-4.932-1.205-2.0824-1.808-4.3566-1.808-6.8226v-23.838h-9.042v-6.165z"/><path d="m555.765 66.4737c-3.343 0-6.467-.822-9.371-2.466-2.85-1.644-5.097-3.8908-6.741-6.7404-1.643-2.8496-2.465-5.9458-2.465-9.2886v-25.8107h6.986v24.5777c0 2.4112.576 4.6306 1.727 6.6582 1.205 2.0276 2.822 3.6442 4.849 4.8498 2.028 1.1508 4.247 1.7262 6.659 1.7262 2.466 0 4.685-.6576 6.658-1.9728 2.027-1.3152 3.617-3.0414 4.767-5.1786 1.151-2.192 1.727-4.5484 1.727-7.0692v-23.5913h6.987v43.5659h-6.987v-7.4802c-1.535 2.5208-3.617 4.521-6.248 6.0006-2.63 1.4796-5.48 2.2194-8.548 2.2194z"/><path d="m508.856 22.2498v-11.3436h6.905v11.3436h14.139v6.165h-14.139v23.2626c0 1.4796.356 2.8222 1.069 4.0278.712 1.2056 1.671 2.1646 2.877 2.877 1.205.6576 2.548.9864 4.028.9864h6.493v6.2472h-7.891c-2.411 0-4.658-.6028-6.74-1.8084-2.083-1.2056-3.727-2.8496-4.932-4.932-1.206-2.0824-1.809-4.3566-1.809-6.8226v-23.838h-9.042v-6.165z"/><path d="m493.687 6.96094h-7.398v7.48016h7.398zm-7.316 58.85506v-43.5659h6.987v43.5659z"/><path d="m458.202 22.2498v-11.3436h6.905v11.3436h14.138v6.165h-14.138v23.2626c0 1.4796.356 2.8222 1.069 4.0278.712 1.2056 1.671 2.1646 2.877 2.877 1.205.6576 2.548.9864 4.027.9864h6.494v6.2472h-7.891c-2.411 0-4.658-.6028-6.74-1.8084-2.083-1.2056-3.727-2.8496-4.932-4.932-1.206-2.0824-1.809-4.3566-1.809-6.8226v-23.838h-9.042v-6.165z"/><path d="m440.469 31.9511c-1.973-1.3152-3.863-2.2742-5.672-2.877-2.794-.9864-5.507-1.4796-8.137-1.4796-2.631 0-4.877.4932-6.741 1.4796-1.26.6028-2.192 1.37-2.794 2.3016-.548.8768-.822 1.8084-.822 2.7948 0 1.8084.904 3.151 2.712 4.0278 1.644.7672 4.603 1.5892 8.878 2.466 3.069.6028 5.726 1.3152 7.973 2.1372 2.302.822 4.192 1.918 5.672 3.288 2.411 2.0824 3.617 4.7402 3.617 7.9734 0 3.1784-1.096 5.6717-3.288 7.4801-1.096 1.0412-2.412 1.9729-3.946 2.7948-2.795 1.4248-6.055 2.1372-9.782 2.1372-3.288 0-6.576-.5754-9.864-1.7262-1.698-.6576-3.562-1.5344-5.589-2.6303-1.973-1.1508-3.59-2.2743-4.85-3.3702l3.041-5.2608c1.864 1.6988 4.22 3.2058 7.07 4.521 3.452 1.5344 6.85 2.3016 10.192 2.3016 2.357 0 4.466-.5206 6.33-1.5618 1.15-.548 2.027-1.233 2.63-2.055s.904-1.7536.904-2.7948c0-1.8084-.931-3.288-2.795-4.4388-2.137-1.2604-5.315-2.3016-9.535-3.1236-5.699-1.096-9.891-2.5482-12.576-4.3566-2.631-1.8632-3.946-4.4662-3.946-7.809 0-2.4112.63-4.521 1.891-6.3294 1.205-1.6988 2.877-3.014 5.014-3.9456 3.014-1.5892 6.549-2.3838 10.604-2.3838 3.288 0 6.384.4932 9.288 1.4796 2.959.9316 5.508 2.1372 7.645 3.6168z"/><path d="m382.217 21.5117c3.397 0 6.494.822 9.288 2.466 2.85 1.644 5.097 3.8908 6.741 6.7404 1.699 2.8496 2.548 5.9732 2.548 9.3708v25.7285h-6.987v-24.5777c0-2.4112-.603-4.6306-1.808-6.6582-1.151-2.0276-2.74-3.6168-4.768-4.7676-2.028-1.2056-4.247-1.8084-6.658-1.8084s-4.631.6576-6.658 1.9728c-2.028 1.3152-3.645 3.0688-4.85 5.2608-1.151 2.1372-1.726 4.4388-1.726 6.9048v23.6735h-6.987v-43.5659h6.987v7.398c1.589-2.466 3.699-4.4388 6.329-5.9184s5.48-2.2194 8.549-2.2194z"/><path d="m343.271 65.8153v-57.53991h7.234v57.53991z"/></g></svg>