<svg fill="none" height="26" viewBox="0 0 26 26" width="26" xmlns="http://www.w3.org/2000/svg"><path d="m17.9502 4.7002c2.6233 0 4.75 2.12664 4.75 4.75v8.5c0 2.6233-2.1267 4.75-4.75 4.75h-8.5c-2.62336 0-4.75-2.1267-4.75-4.75v-4.25c0-.4142.33578-.75.75-.75.41421 0 .75.3358.75.75v4.25c0 1.7949 1.45507 3.25 3.25 3.25h8.5c1.7949 0 3.25-1.4551 3.25-3.25v-8.5c0-1.79493-1.4551-3.25-3.25-3.25h-4.25c-.4142 0-.75-.33579-.75-.75 0-.41422.3358-.75.75-.75z" fill="#303236"/><path clip-rule="evenodd" d="m7.7002 4c.3279 0 .61223.2278.68359.54785v.00195c.00042.00186.00103.00481.00195.00879.002.00865.00547.02216.00977.04004.00868.03611.02152.09025.03906.15723.03519.13441.08777.32023.1543.52539.14032.43267.31875.86741.50293 1.11719.06231.08397.19043.20215.3916.33984.19335.13231.41941.25818.6416.37012.2206.11113.4277.20364.5801.26758.0756.03173.137.05592.1787.07226.0208.00817.0367.01468.0469.01856.0049.00186.0085.00308.0107.0039l.002.00098.0986.04492c.2188.1223.3584.35512.3584.61133-.0001.25601-.1398.48806-.3584.61035l-.0986.0459-.002.00098c-.0022.00082-.0058.00203-.0107.0039-.0102.00387-.0262.00945-.0469.01758-.0417.01633-.103.04148-.1787.07324-.1525.06396-.3604.1554-.5811.2666-.22216.11197-.44744.23876-.6406.3711-.20128.13793-.32877.25603-.39063.33984-.18414.24888-.36341.68408-.5039 1.11718-.06654.2051-.11911.391-.1543.5254-.01746.0667-.03039.1202-.03906.1563-.00434.018-.00776.0323-.00977.041-.00094.004-.00155.007-.00195.0088v.0019c-.07145.3199-.3558.5469-.68359.5469-.28681 0-.53978-.1738-.64649-.4317l-.03711-.1152v-.0019c-.00041-.0018-.00102-.0048-.00195-.0088-.00201-.0087-.00543-.023-.00977-.041-.00868-.0361-.0216-.0897-.03906-.1563-.0352-.1343-.08771-.3203-.1543-.5254-.14056-.4328-.31987-.8679-.50488-1.11815-.06189-.08359-.18836-.20104-.38965-.33887-.19324-.13231-.41938-.25807-.6416-.37012-.22057-.11122-.42766-.20353-.58008-.26758-.07587-.03188-.13798-.05685-.17969-.07324-.02022-.00795-.03577-.01371-.04589-.01758-.0051-.00194-.00955-.00406-.01172-.00488h-.00196c-.27408-.10194-.45598-.36384-.45605-.65625.00009-.29264.18266-.55449.45703-.65625l.00195-.00098c.0022-.00082.00586-.00204.01075-.0039.01018-.00388.02606-.01039.04687-.01856.04165-.01634.10308-.04053.17871-.07226.15239-.06395.35951-.15643.58008-.26758.22204-.1119.44753-.2379.64063-.37012.20123-.13783.32874-.25614.39062-.33984l.06934-.10156c.16007-.25623.3125-.63663.43554-1.01563.06657-.20507.1191-.39101.1543-.52539.01754-.06696.03039-.12114.03906-.15723.0043-.01789.00777-.03139.00977-.04004.00092-.00398.00153-.00693.00195-.00879v-.00195l.03711-.11523c.10663-.25799.35956-.43262.64649-.43262zm-.00098 2.79492c-.08148.15453-.16965.30321-.26758.43555l.00098.00098c-.19698.26644-.47159.48716-.72559.66113-.12185.08345-.24863.162-.375.23535.12638.07335.25315.15193.375.23535.25389.17383.52766.39516.72461.66113l.12012.17481c.05248.08309.10141.17058.14844.25976.04705-.08921.09591-.1767.14843-.25976l.11817-.17383c.19689-.2666.47066-.48805.72461-.66211.1216-.08333.2479-.16307.37402-.23633-.12559-.07293-.25193-.1505-.37305-.2334-.25414-.17394-.5274-.39595-.72461-.6621l-.00097-.00098c-.09776-.13237-.18623-.28096-.26758-.43555z" fill="#303236" fill-rule="evenodd"/><path d="m18.7742 9.69922c-.3004 1.08448-.8077 2.57538-1.4805 4.03708.3476 1.7972.2802 3.8694.1856 5.2422h-1.5039c.0584-.8166.1062-1.8641.0634-2.9287-.4099.6309-.8611 1.2132-1.3545 1.6865-.728.6985-1.6179 1.2303-2.6425 1.2305-.6027 0-1.1393-.1552-1.5811-.4648-.439-.308-.73724-.7361-.9238-1.2041-.36428-.9145-.33152-2.0436-.08008-3.084.25467-1.0533.75758-2.1212 1.45308-2.9405.6913-.8141 1.6451-1.45969 2.791-1.45992 1.1068.00002 1.9437.50012 2.5264 1.26172.1249.1633.2357.34.3379.5234.2612-.6824.4787-1.3344.6475-1.89938zm-5.0733 1.61428c-.5485.0002-1.1209.3106-1.6474.9306-.5225.6155-.9308 1.4626-1.1387 2.3223-.2107.8721-.1915 1.6566.0156 2.1768.0994.2489.2342.4197.3916.5302.155.1086.3803.1934.7198.1934.4831-.0002 1.0198-.2516 1.6045-.8125.5806-.5571 1.138-1.3538 1.6474-2.2744.1481-.2676.2876-.5446.4238-.8233-.1645-.6524-.3902-1.1881-.6816-1.5693-.3318-.4336-.7469-.6738-1.335-.6738z" fill="#0068ff"/></svg>